# xmcd
#
# Track frame offsets:
#	150
#	7258
#	22625
#	34501
#	43494
#	52199
#	62866
#	79449
#	90590
#	97928
#	107572
#	118697
#	130238
#	140988
#	160199
#	171037
#	179133
#	190761
#
# Disc length: 2657 seconds
#
# Revision: 1
# Processed by: cddbd v1.5.2PL0 Copyright (c) Steve Scherf et al.
# Submitted via: audiograbber 1.83.01
#
DISCID=fd0a5f12
DTITLE=Coffinshakers - The Blood Compilation
DYEAR=1900
DGENRE=
TTITLE0=We Are The Undead
TTITLE1=Black Sunday
TTITLE2=Pale Man In Black
TTITLE3=You Don't Know
TTITLE4=No Time To Waste
TTITLE5=No Rest For The Wicked
TTITLE6=You Call It Graveyard
TTITLE7=Dark In My Heart
TTITLE8=Twins Of Evil
TTITLE9=Vampires Don't Cry
TTITLE10=The Night-Side Of Life
TTITLE11=Lust Foor Blood
TTITLE12=At My Mercy (Intro)
TTITLE13=Until The End
TTITLE14=Back From The Grave
TTITLE15=Virgin Among The Living Dead
TTITLE16=The Blood Nymph
TTITLE17=Vampire Outlaw
EXTD=
EXTT0=
EXTT1=
EXTT2=
EXTT3=
EXTT4=
EXTT5=
EXTT6=
EXTT7=
EXTT8=
EXTT9=
EXTT10=
EXTT11=
EXTT12=
EXTT13=
EXTT14=
EXTT15=
EXTT16=
EXTT17=
PLAYORDER=
